# xmcd CD database file
# Copyright (C) 1993-1998 Ti Kan
#
# Track frame offsets:
#	182
#	53152
#	93500
#	182420
#
# Disc length: 3391 seconds
#
# Revision: 1
# Processed by: cddbd v1.4b41PL1 Copyright (c) Steve Scherf et al.
# Submitted via: NotifyCDPlayer(CDDB) 1.51.3
#
DISCID=290d3d04
DTITLE=M. R. Chakrarot Chitrabongs - Royal court music of Thailand
DYEAR=1900
DGENRE=
TTITLE0=Sounds of the Surf Overture
TTITLE1=The Floating Moon
TTITLE2=A Starlit Night
TTITLE3=Heart of the Sea
EXTD=
EXTT0=
EXTT1=
EXTT2=
EXTT3=
PLAYORDER=
